<?xml version="1.0" encoding="iso-8859-1"?>
<!-- Generator: Adobe Illustrator 16.0.0, SVG Export Plug-In . SVG Version: 6.00 Build 0)  -->
<!DOCTYPE svg PUBLIC "-//W3C//DTD SVG 1.1//EN" "http://www.w3.org/Graphics/SVG/1.1/DTD/svg11.dtd">
<svg version="1.1" id="Capa_1" xmlns="http://www.w3.org/2000/svg" xmlns:xlink="http://www.w3.org/1999/xlink" x="0px" y="0px"
	 width="235.525px" height="235.524px" viewBox="0 0 235.525 235.524" style="enable-background:new 0 0 235.525 235.524;"
	 xml:space="preserve">
<g>
	<g>
		<path d="M57.677,149.275c1.012,0,2.048-0.272,2.967-0.886c2.473-1.659,3.146-5.001,1.507-7.462L34.759,99.699h61.979
			c2.972,0,5.378-2.404,5.378-5.378c0-2.985-2.407-5.386-5.378-5.386h-69.12L15.417,70.582h103.155c2.968,0,5.378-2.411,5.378-5.386
			c0-2.985-2.41-5.384-5.378-5.384H5.386c-1.979,0-3.807,1.088-4.743,2.831c-0.944,1.759-0.84,3.865,0.249,5.521l52.285,78.676
			C54.221,148.426,55.934,149.275,57.677,149.275z"/>
		<path d="M230.123,58.217h-90.8c-1.819,0-3.515,0.912-4.501,2.448l-51.75,79.197c-11.335,0.484-29.258,7.285-32.877,31.266
			c-0.23,1.555,0.226,3.134,1.238,4.324c1.032,1.17,2.515,1.855,4.089,1.855h126.109c1.832,0,3.535-0.93,4.521-2.457l22.634-35.049
			c1.066-1.655,1.15-3.755,0.213-5.49c-0.949-1.731-2.766-2.797-4.736-2.797h-76.53c-2.968,0-5.378,2.416-5.378,5.39
			s2.41,5.382,5.378,5.382h66.655l-15.693,24.285H62.316c5.634-16.475,21.267-15.945,23.259-15.93
			c1.879,0.221,3.819-0.773,4.891-2.424l31.701-48.51h90.191c2.966,0,5.374-2.396,5.374-5.386c0-2.979-2.408-5.378-5.374-5.378
			h-83.164L142.24,68.98h87.895c2.97,0,5.391-2.404,5.391-5.394C235.513,60.619,233.088,58.217,230.123,58.217z"/>
	</g>
</g>
<g>
</g>
<g>
</g>
<g>
</g>
<g>
</g>
<g>
</g>
<g>
</g>
<g>
</g>
<g>
</g>
<g>
</g>
<g>
</g>
<g>
</g>
<g>
</g>
<g>
</g>
<g>
</g>
<g>
</g>
</svg>
