<?xml version="1.0" encoding="iso-8859-1"?>
<!-- Generator: Adobe Illustrator 19.0.0, SVG Export Plug-In . SVG Version: 6.00 Build 0)  -->
<svg version="1.1" id="Layer_1" xmlns="http://www.w3.org/2000/svg" xmlns:xlink="http://www.w3.org/1999/xlink" x="0px" y="0px"
	 viewBox="0 0 512.002 512.002" style="enable-background:new 0 0 512.002 512.002;" xml:space="preserve">
<path style="fill:#FFFFFF;" d="M102.372,334.653c-54.252,0.032-98.256-43.917-98.289-98.16
	c-0.024-43.949,29.139-82.558,71.415-94.558l2.962-0.841l-0.08-5.548c-0.032-68.893,55.797-124.77,124.69-124.802
	c49.064-0.024,93.581,28.715,113.763,73.44l1.313,2.89l3.114-0.616c4.803-0.945,9.694-1.425,14.594-1.433
	c32.269,0.04,61.104,20.157,72.271,50.433l0.945,2.578l2.746,0.048c53.523,1.153,96.375,44.749,96.607,98.288
	c-0.056,54.252-44.021,98.216-98.273,98.281H102.372z"/>
<path style="fill:#AAC1CE;" d="M203.198,14.739c47.431,0.08,90.427,27.874,109.984,71.087l2.618,5.788l6.228-1.225
	c4.555-0.897,9.182-1.353,13.825-1.361c30.588,0.048,57.91,19.117,68.501,47.815l1.889,5.163l5.5,0.096
	c51.338,1.105,92.453,42.916,92.677,94.27c-0.056,52.042-42.228,94.214-94.27,94.278H102.372
	c-52.042,0.024-94.254-42.14-94.278-94.182c-0.016-42.14,27.946-79.172,68.477-90.684l5.908-1.673l-0.088-6.14v-2.402
	C82.471,68.87,136.507,14.827,203.198,14.739 M203.198,6.733c-71.111,0.08-128.74,57.702-128.821,128.813c0,0.849,0,1.689,0,2.538
	C20.062,153.478-11.495,209.995,3.9,264.31c12.48,44.021,52.691,74.393,98.449,74.353H410.15
	c56.493-0.24,102.091-46.23,101.851-102.723c-0.24-55.476-44.653-100.65-100.114-101.835c-11.632-31.949-42.052-53.179-76.05-53.075
	c-5.163,0-10.311,0.512-15.37,1.513C299.638,36.457,253.775,6.805,203.198,6.733z"/>
<polygon style="fill:#25B6D2;" points="286.021,230 226.494,231.985 226.494,386.567 158.785,386.567 256.257,505.269 
	353.729,386.567 286.021,386.567 "/>
<polygon style="fill:#45C7D8;" points="256.257,505.269 254.288,252.911 286.021,230 286.021,386.567 353.729,386.567 "/>
<rect x="92.221" y="225.989" style="fill:#AAC1CE;" width="328.063" height="8.005"/>
<circle style="fill:#FFFFFF;" cx="256.249" cy="230" r="33.158"/>
<path style="fill:#AAC1CE;" d="M256.257,267.16c-20.525,0-37.16-16.635-37.16-37.16s16.635-37.16,37.16-37.16
	s37.16,16.635,37.16,37.16l0,0C293.394,250.517,276.767,267.136,256.257,267.16z M256.257,200.853
	c-16.099,0-29.155,13.057-29.155,29.155s13.057,29.155,29.155,29.155s29.155-13.057,29.155-29.155l0,0
	C285.396,213.909,272.356,200.861,256.257,200.853L256.257,200.853z"/>
<g>
</g>
<g>
</g>
<g>
</g>
<g>
</g>
<g>
</g>
<g>
</g>
<g>
</g>
<g>
</g>
<g>
</g>
<g>
</g>
<g>
</g>
<g>
</g>
<g>
</g>
<g>
</g>
<g>
</g>
</svg>
