<svg id="Capa_1" enable-background="new 0 0 512 512" height="512" viewBox="0 0 512 512" width="512" xmlns="http://www.w3.org/2000/svg"><g><path d="m387.551 139.814c-21.481 21.481-42.66 21.952-55.433 9.179-12.772-12.772-12.302-33.952 9.179-55.433s63.543-27.424 68.61-22.357c5.068 5.069-.875 47.131-22.356 68.611z" fill="#ffc344"/><path d="m409.907 71.204c-2.594-2.594-14.885-2.294-29.142 1.489 3.35 9.075-3.158 47.064-23.215 67.121-6.513 6.513-12.996 11.083-19.227 13.949 12.851 7.394 30.927 4.351 49.227-13.949 21.482-21.481 27.425-63.542 22.357-68.61z" fill="#feb237"/><path d="m343.887 370.002c0 40.042-28.02 72.505-62.59 72.505h-211.2v-145h211.2c34.57 0 62.59 32.463 62.59 72.495z" fill="#ac5e2e"/><ellipse cx="70.095" cy="370.006" fill="#e8ad8c" rx="62.595" ry="72.499"/><path d="m412.055 306.826c-13.52 37.585-50.847 58.571-83.377 46.869l-198.733-71.49 48.959-136.102 198.733 71.49c32.53 11.702 47.935 51.657 34.418 89.233z" fill="#d77f4a"/><path d="m377.638 217.594-198.733-71.49-3.437 9.555 172.17 61.934c32.529 11.702 47.934 51.657 34.417 89.232-8.91 24.769-28.161 42.323-49.562 48.069 31.582 8.828 66.567-11.945 79.562-48.069 13.517-37.575-1.888-77.53-34.417-89.231z" fill="#c86d36"/><ellipse cx="154.424" cy="214.153" fill="#e8ad8c" rx="72.319" ry="62.595" transform="matrix(.339 -.941 .941 .339 -99.359 286.973)"/><path d="m140.099 253.974c-16.625-5.98-24.111-29.268-16.346-50.853s28.37-34.768 44.995-28.787 24.111 29.269 16.347 50.854c-7.765 21.583-28.37 34.766-44.996 28.786z" fill="#f4d7c8"/><path d="m504.5 370.002c0 40.042-28.02 72.505-62.59 72.505h-211.2v-145h211.2c34.57 0 62.59 32.463 62.59 72.495z" fill="#c86d36"/><path d="m441.91 297.507h-30c34.57 0 62.59 32.463 62.59 72.495 0 40.042-28.02 72.505-62.59 72.505h30c34.57 0 62.59-32.463 62.59-72.505 0-40.032-28.02-72.495-62.59-72.495z" fill="#ac5e2e"/><ellipse cx="230.708" cy="370.006" fill="#e8ad8c" rx="62.595" ry="72.499"/><path d="m229.803 412.943c-17.668 0-32.595-19.428-32.595-42.424s14.927-42.424 32.595-42.424 32.595 19.428 32.595 42.424-14.927 42.424-32.595 42.424z" fill="#f4d7c8"/><path d="m70.606 412.943c-17.668 0-32.595-19.428-32.595-42.424s14.927-42.424 32.595-42.424 32.595 19.428 32.595 42.424-14.927 42.424-32.595 42.424z" fill="#f4d7c8"/><g><path d="m441.91 290.006h-18.152c4.517-35.683-13.185-68.532-43.579-79.464l-46.563-16.75c-.203-11.649 2.069-22.129 5.602-31.296 4.185 1.653 8.674 2.513 13.339 2.513 1.63 0 3.283-.104 4.949-.314 11.808-1.487 24.031-8.255 35.348-19.572 13.876-13.875 20.427-33.463 23.097-43.904 2.117-8.278 6.282-28.289-.74-35.31-7.022-7.022-27.034-2.857-35.312-.74-10.441 2.67-30.029 9.22-43.905 23.096-11.317 11.316-18.085 23.539-19.573 35.347-1.438 11.412 2.105 22.119 9.962 30.233-4.232 10.045-7.223 21.603-7.715 34.57l-37.654-13.545c-3.9-1.403-8.194.62-9.596 4.518-1.402 3.897.621 8.194 4.519 9.595l99.165 35.672c24.225 8.713 38.018 35.903 33.528 65.35h-102.656l-74.035-26.631c-3.899-1.404-8.194.621-9.596 4.518s.621 8.194 4.519 9.595l34.799 12.518h-30.951c-.007 0-.013.001-.02.001-11.564.003-22.473 3.238-32.096 8.926l-27.676-9.955c21.563-7.656 40.436-26.004 49.463-51.097 2.542-7.066 4.162-14.294 4.896-21.509l69.735 25.085c.839.302 1.695.445 2.538.445 3.074 0 5.958-1.904 7.058-4.963 1.402-3.897-.621-8.194-4.519-9.595l-74.654-26.854c-.645-7.626-2.325-15.088-5.055-22.167-1.544-4.003-3.398-7.768-5.503-11.302l27.483 9.886c.839.302 1.695.445 2.538.445 3.074 0 5.958-1.904 7.058-4.963 1.402-3.897-.621-8.194-4.519-9.595l-65.98-23.735c-.005-.002-.01-.004-.015-.006-17.812-6.407-37.356-4.466-55.032 5.468-17.319 9.734-30.795 26.039-37.943 45.91-14.852 41.285 2.468 85.467 38.61 98.7.026.011.05.025.076.035.124.05.241.094.302.114.082.033.164.064.247.094l1.759.633h-59.361c-.005 0-.011.001-.016.001-38.646.006-70.084 35.889-70.084 79.995 0 13.341 2.931 26.547 8.477 38.191 1.781 3.739 6.255 5.326 9.997 3.546 3.739-1.781 5.327-6.257 3.546-9.996-4.593-9.642-7.02-20.618-7.02-31.741 0-35.839 24.716-64.996 55.095-64.996s55.095 29.157 55.095 64.996-24.716 64.996-55.095 64.996c-9.97 0-19.741-3.184-28.255-9.209-3.382-2.393-8.062-1.591-10.454 1.79-2.393 3.381-1.591 8.061 1.79 10.454 11.041 7.813 23.781 11.948 36.847 11.963.026 0 .051.004.076.004h315.165c4.142 0 7.5-3.358 7.5-7.5s-3.358-7.5-7.5-7.5h-113.771c8.628-7.072 15.807-16.306 20.894-27.024h56.936c4.142 0 7.5-3.358 7.5-7.5s-3.358-7.5-7.5-7.5h-51.48c1.917-7.282 2.96-14.991 2.96-22.975 0-26.755-11.58-50.466-29.308-64.997h170.415c20.221 0 37.92 12.927 47.503 32.135h-128.567c-4.142 0-7.5 3.358-7.5 7.5s3.358 7.5 7.5 7.5h134.023c1.378 5.677 2.131 11.662 2.131 17.854 0 35.845-24.713 65.007-55.09 65.007h-21.669c-4.142 0-7.5 3.358-7.5 7.5s3.358 7.5 7.5 7.5h21.669c38.647 0 70.09-35.891 70.09-80.007 0-44.105-31.442-79.987-70.09-79.987zm-95.309-191.136c16.301-16.3 44.494-21.897 55.421-21.897.77 0 1.454.028 2.042.082.816 8.939-4.368 40.013-21.816 57.461-12.882 12.881-26.071 17.895-36.474 14.425 11.099-18.943 25.818-29.562 26.138-29.789 3.387-2.374 4.212-7.044 1.842-10.436-2.372-3.396-7.048-4.226-10.443-1.852-1.128.788-16.885 12.025-29.379 32.347-6.394-10.873-1.868-25.805 12.669-40.341zm-244.02 96.636c5.929-16.48 17.001-29.944 31.178-37.912 8.542-4.801 17.584-7.235 26.469-7.235 5.49 0 10.921.93 16.135 2.805.003.001.005.002.008.003l.008.003c13.646 4.914 24.302 15.762 30.006 30.548 5.853 15.173 5.811 32.604-.118 49.085-12.098 33.629-45.197 52.624-73.784 42.342-28.586-10.283-42-46.009-29.902-79.639zm37.609 174.496c0-26.755-11.58-50.466-29.308-64.997h60.279l13.428 4.83c-14.68 14.674-23.977 36.198-23.977 60.167 0 26.756 11.581 50.468 29.311 64.999h-79.043c17.729-14.531 29.31-38.243 29.31-64.999zm145.613 0c0 35.839-24.716 64.996-55.095 64.996s-55.095-29.157-55.095-64.996 24.716-64.996 55.095-64.996 55.095 29.157 55.095 64.996z"/><path d="m371.062 268.812c.839.302 1.695.445 2.538.445 3.074 0 5.958-1.904 7.058-4.963 1.402-3.897-.621-8.194-4.519-9.595l-41.631-14.976c-3.898-1.402-8.194.621-9.596 4.518s.621 8.194 4.519 9.595z"/><path d="m467.269 400.477c0-4.142-3.358-7.5-7.5-7.5h-58.412c-4.142 0-7.5 3.358-7.5 7.5s3.358 7.5 7.5 7.5h58.412c4.142 0 7.5-3.358 7.5-7.5z"/><path d="m148.331 262.884c17.753 0 36.241-14.087 43.821-35.157 4.313-11.988 4.688-24.813 1.056-36.111-3.8-11.822-11.791-20.692-21.921-24.336-20.447-7.356-45.45 7.895-54.59 33.304-4.313 11.989-4.688 24.813-1.056 36.112 3.8 11.822 11.79 20.692 21.921 24.336 3.492 1.255 7.113 1.852 10.769 1.852zm-18.411-30.78c-2.586-8.045-2.262-17.683.89-26.444 6.278-17.453 22.823-28.791 35.399-24.268 5.802 2.087 10.318 7.347 12.718 14.812 2.586 8.045 2.261 17.683-.89 26.444-6.278 17.452-22.819 28.79-35.399 24.268-5.801-2.086-10.318-7.347-12.718-14.812z"/><path d="m229.803 320.593c-21.733 0-40.095 22.861-40.095 49.922 0 27.06 18.361 49.922 40.095 49.922s40.095-22.861 40.095-49.922-18.361-49.922-40.095-49.922zm0 84.844c-13.368 0-25.095-16.319-25.095-34.922 0-18.604 11.727-34.923 25.095-34.923 13.369 0 25.095 16.319 25.095 34.923 0 18.603-11.726 34.922-25.095 34.922z"/><path d="m70.605 420.437c21.734 0 40.095-22.861 40.095-49.922s-18.361-49.922-40.095-49.922c-21.733 0-40.095 22.861-40.095 49.922.001 27.06 18.362 49.922 40.095 49.922zm0-84.845c13.369 0 25.095 16.319 25.095 34.923 0 18.603-11.727 34.922-25.095 34.922s-25.095-16.319-25.095-34.922c.001-18.604 11.727-34.923 25.095-34.923z"/></g></g></svg>