<svg id="Capa_1" enable-background="new 0 0 512 512" height="512" viewBox="0 0 512 512" width="512" xmlns="http://www.w3.org/2000/svg"><g><circle cx="256" cy="256" r="15"/><path d="m473.642 121.156c-9.316 5.957-20.369 9.427-32.223 9.427-11.111 0-21.52-3.047-30.454-8.333l-114.362 114.361c2.817 5.875 4.397 12.451 4.397 19.389 0 24.813-20.187 45-45 45s-45-20.187-45-45 20.187-45 45-45c6.939 0 13.514 1.581 19.389 4.398l114.362-114.362c-5.286-8.934-8.333-19.343-8.333-30.454 0-11.854 3.47-22.907 9.427-32.223-44.842-27.812-97.518-41.175-150.808-37.864-62.273 3.865-120.891 30.316-165.054 74.48-48.354 48.354-74.983 112.642-74.983 181.022s26.629 132.669 74.982 181.021c48.352 48.353 112.64 74.982 181.022 74.982 68.38 0 132.668-26.629 181.021-74.981 44.164-44.163 70.615-102.781 74.48-165.054 3.309-53.296-10.053-105.969-37.863-150.809zm-53.478 218.653c5.474 6.219 4.869 15.697-1.35 21.17-2.85 2.509-6.385 3.74-9.904 3.74-4.161 0-8.301-1.721-11.266-5.09l-27.806-31.592v21.682c0 8.284-6.716 15-15 15s-15-6.716-15-15v-100c0-8.284 6.716-15 15-15 .005 0 .011.001.016.001s.011-.001.016-.001h26.574c23.412 0 42.459 18.388 42.459 40.989 0 17.218-11.06 31.98-26.677 38.04z"/><path d="m381.446 264.719h-11.529c.012 4.451.037 17.768.058 22.014 4.369-.021 8.704-.036 11.472-.036 6.754 0 12.459-5.032 12.459-10.988-.001-5.958-5.706-10.99-12.46-10.99z"/><circle cx="441.418" cy="70.582" r="30"/></g></svg>