<svg height="512" viewBox="0 0 512 512" width="512" xmlns="http://www.w3.org/2000/svg"><g><g><g><g><path d="m248 368h-160v-112h32l48 48 48-48h32z" fill="#f98800"/><path d="m88 304h160v32h-160z" fill="#ffec00"/><path d="m88 256h32v112h-32z" fill="#ffec00"/><path d="m96 272h16v88h-16z" fill="#dff1fc"/><path d="m216 256h32v112h-32z" fill="#ffec00"/><path d="m224 272h16v88h-16z" fill="#dff1fc"/><path d="m168 376a8 8 0 0 1 -8-8v-64a8 8 0 0 1 16 0v64a8 8 0 0 1 -8 8z" fill="#ffec00"/><path d="m88 360h160v16h-160z" fill="#ffec00"/><path d="m120 312h96v16h-96z" fill="#dff1fc"/></g><path d="m96 440v16h-8a16 16 0 0 0 -16 16v16h80v-48z" fill="#8e4b19"/><path d="m240 440v16h8a16 16 0 0 1 16 16v16h-80v-48z" fill="#8e4b19"/><path d="m184 368h-96v64a8 8 0 0 0 8 8h56v-24h32v24h56a8 8 0 0 0 8-8v-64z" fill="#00587e"/><g><path d="m96 440v16h-8a16 16 0 0 0 -16 16v16h48v-48z" fill="#c1641f"/><path d="m248 456h-8v-16h-24v48h48v-16a16 16 0 0 0 -16-16z" fill="#c1641f"/><g fill="#007bb1"><path d="m120 368h-32v64a8 8 0 0 0 8 8h24z"/><path d="m240 440a8 8 0 0 0 8-8v-64h-32v72z"/><path d="m120 368h96v32h-96z"/></g></g><path d="m88 272a0 0 0 0 1 0 0v96a0 0 0 0 1 0 0h-48a0 0 0 0 1 0 0v-48a48 48 0 0 1 48-48z" fill="#e22526"/><path d="m72 400a16 16 0 0 1 -16 16 16 16 0 0 1 -16-16v-32h48v32z" fill="#fbe2bc"/><g><path d="m88 272v6.437a47.97 47.97 0 0 0 -24 41.563v48h-24v-48a48 48 0 0 1 48-48z" fill="#d20e0f"/><path d="m64 400a15.924 15.924 0 0 0 4 10.559 15.985 15.985 0 0 1 -28-10.559v-32h24z" fill="#f9ce95"/></g><path d="m248 272h80v48h-80z" fill="#e22526"/><path d="m248 296h80v24h-80z" fill="#d20e0f"/></g><g><g><circle cx="168" cy="200" fill="#fac8b2" r="104"/><path d="m88 176h160v32h-160z" fill="#f4b7a2"/><path d="m168 272a104.024 104.024 0 0 1 -102.775-88 104.006 104.006 0 1 0 206.775 16 104.845 104.845 0 0 0 -1.225-16 104.024 104.024 0 0 1 -102.775 88z" fill="#f4b7a2"/><circle cx="128" cy="224" fill="#2c3f51" r="8"/><circle cx="208" cy="224" fill="#2c3f51" r="8"/><path d="m272 200a104 104 0 1 0 -176 75.042v-83.042h144v83.042a103.7 103.7 0 0 0 32-75.042z" fill="#683b11"/><path d="m184 256a7.974 7.974 0 0 1 -5.657-2.343 3.312 3.312 0 0 0 -4.686 0 8 8 0 0 1 -11.314 0 3.312 3.312 0 0 0 -4.686 0 8 8 0 0 1 -11.314-11.314 19.351 19.351 0 0 1 21.657-3.933 19.351 19.351 0 0 1 21.657 3.933 8 8 0 0 1 -5.657 13.657z" fill="#683b11"/><g fill="#c1641f"><path d="m240 283.042a8 8 0 0 1 -8-8v-83.042a8 8 0 0 1 16 0v83.042a8 8 0 0 1 -8 8z"/><path d="m96 283.042a8 8 0 0 0 8-8v-83.042a8 8 0 0 0 -16 0v83.042a8 8 0 0 0 8 8z"/></g></g><g><path d="m288 160a120 120 0 0 0 -240 0h-8a16 16 0 0 0 -16 16 16 16 0 0 0 16 16h256a16 16 0 0 0 16-16 16 16 0 0 0 -16-16z" fill="#ffec00"/><g><path d="m40 192h256a16 16 0 0 0 16-16h-288a16 16 0 0 0 16 16z" fill="#fcc200"/><path d="m192 160h96a119.494 119.494 0 0 0 -13.125-54.625c-32.496 54.616-82.875 54.625-82.875 54.625z" fill="#ffce00"/></g><path d="m237.49 62.15a56.486 56.486 0 0 1 -6.93 22.61c-7.7 13.88-20.27 24.46-33.75 32.82-42.98 26.65-98.12 32.23-145.87 15.93a120.1 120.1 0 0 1 141.06-91.1 119.584 119.584 0 0 1 45.49 19.74z" fill="#ff0"/><path d="m217.04 50.45-25.04 37.55v-45.59a117.9 117.9 0 0 1 25.04 8.04z" fill="#ffce00"/><path d="m144 24h48v64h-48z" fill="#ffec00"/><path d="m96 168h-48a8 8 0 0 1 0-16h48a8 8 0 0 1 0 16z" fill="#fcc200"/><path d="m288 168h-48a8 8 0 0 1 0-16h48a8 8 0 0 1 0 16z" fill="#fcc200"/><circle cx="176" cy="136" fill="#ffce00" r="24"/><path d="m112.007 88.35a8 8 0 0 1 -4.321-14.738c2.787-1.784 5.686-3.464 8.617-4.991a8 8 0 1 1 7.397 14.189c-2.511 1.308-5 2.747-7.383 4.276a7.967 7.967 0 0 1 -4.31 1.264z" fill="#fff"/><path d="m72 135.932a8.005 8.005 0 0 1 -7.378-11.087 111.638 111.638 0 0 1 22.559-34.384 8 8 0 1 1 11.544 11.078 95.727 95.727 0 0 0 -19.344 29.475 8 8 0 0 1 -7.381 4.918z" fill="#fff"/><circle cx="168" cy="136" fill="#dff1fc" r="24"/><circle cx="168" cy="136" fill="#aedef8" r="16"/></g><g fill="#f05a29"><circle cx="120" cy="256" r="16"/><circle cx="216" cy="256" r="16"/></g></g><path d="m400 288a16 16 0 0 0 -16-16h-56v48h72z" fill="#f9ce95"/><path d="m480 127.999v-72l-32-31.999h-24v88l-16 16z" fill="#dff1fc"/><path d="m504 127.999v-72l-32-31.999h-24v88l-16 16z" fill="#aedef8"/><path d="m384 128-16-16v-88h-16l-32 32v88l32 32v264a48 48 0 0 0 48 48 48 48 0 0 0 48-48v-264l32-32v-16zm16 328a16 16 0 1 1 16-16 16 16 0 0 1 -16 16z" fill="#dff1fc"/><path d="m408 128-16-16v-88h-16l-32 32v88l32 32v264a48 48 0 0 0 48 48 48 48 0 0 0 48-48v-264l32-32v-16zm16 328a16 16 0 1 1 16-16 16 16 0 0 1 -16 16z" fill="#aedef8"/><path d="m360 296s16 0 16 16v8h-48v-48h32z" fill="#fbe2bc"/></g><path d="m120 224c.391-10.6 15.608-10.6 16 0a8 8 0 0 1 -16 0zm88 8a8 8 0 0 0 8-8c-.392-10.6-15.609-10.6-16 0a8 8 0 0 0 8 8zm-50.343 21.657a3.315 3.315 0 0 1 4.686 0 8 8 0 0 0 11.314 0 3.315 3.315 0 0 1 4.686 0 8 8 0 0 0 11.314-11.314 19.35 19.35 0 0 0 -21.657-3.923 19.345 19.345 0 0 0 -21.657 3.923c-7.23 7.746 3.57 18.544 11.314 11.314zm-21.657-117.657c1.751-42.44 62.242-42.452 64 0a32 32 0 0 1 -64 0zm16 0c.876 21.22 31.121 21.226 32 0a16 16 0 0 0 -32 0zm344 8a8 8 0 0 1 -2.343 5.657l-29.657 29.656v260.687c.12 49.525-60.763 74.742-95.6 39.595a55.6 55.6 0 0 1 -16.4-39.595v-112h-96v104a16 16 0 0 1 -8 13.835v2.165a24.027 24.027 0 0 1 24 24v16a8 8 0 0 1 -8 8h-80a8 8 0 0 1 -8-8c0-11.317.006-53.478 0-64h-16v64a8 8 0 0 1 -8 8h-80a8 8 0 0 1 -8-8v-16a24.027 24.027 0 0 1 24-24v-2.165a16 16 0 0 1 -8-13.835v-24h-1.371c-9.271 25.061-46.129 19.039-46.629-8v-80a56.093 56.093 0 0 1 44.92-54.895 111.379 111.379 0 0 1 -20.92-65.105h-16c-12.9.28-24.277-11.119-24-24a24.034 24.034 0 0 1 24.25-24 128.426 128.426 0 0 1 95.75-115.945v-12.055a8 8 0 0 1 8-8h48a8 8 0 0 1 8 8v12.055a128.426 128.426 0 0 1 95.75 115.945c13.04-.381 24.5 10.975 24.25 24a24.027 24.027 0 0 1 -24 24h-16a111.373 111.373 0 0 1 -20.141 64h92.141v-84.687l-29.657-29.656a8 8 0 0 1 -2.343-5.657v-88a8 8 0 0 1 2.343-5.657l32-32a8 8 0 0 1 5.657-2.343h16a8 8 0 0 1 8 8v84.687l11.313 11.313h17.373l11.314-11.313v-84.687a8 8 0 0 1 8-8h24a8 8 0 0 1 5.657 2.343l32 32a8 8 0 0 1 2.343 5.657zm-60.686-24h44.686v-60.688l-27.313-27.312h-12.687v80a8 8 0 0 1 -2.343 5.657zm-227.314 240v-16h-32v16zm-48 0v-16h-32v16zm-48 0v-63.035a112.549 112.549 0 0 1 -16-11.248v74.283zm-8-160v71.488c34.755 32.433 93.236 32.441 128 0v-71.488zm24 128h32v-16h-32zm48 0h32v-16h-32zm48 32h16v-74.283a112.549 112.549 0 0 1 -16 11.248zm40-160h-16v53a95.442 95.442 0 0 0 16-53zm32-16c10.6-.373 10.574-15.665 0-16h-56a8 8 0 0 1 0-16h39.688a112.4 112.4 0 0 0 -79.688-99.363v35.363a8 8 0 0 1 -16 0c0-7.45 0-49.552 0-56h-32v56a8 8 0 0 1 -16 0v-35.363a112.4 112.4 0 0 0 -79.688 99.363h39.688a8 8 0 0 1 0 16h-56c-10.593.372-10.585 15.657 0 16zm-224 16a95.442 95.442 0 0 0 16 53v-53zm-24 160h32v-79.2a40.071 40.071 0 0 0 -32 39.2zm32 32v-16h-32v24a8 8 0 0 0 16 0 8 8 0 0 1 8-8zm64 56h-40v8a8 8 0 0 1 -8 8h-8a8.009 8.009 0 0 0 -8 8v8h64zm40-40a8 8 0 0 1 8 8v16h48v-56h-144v56h48v-16a8 8 0 0 1 8-8zm64 56h-8a8 8 0 0 1 -8-8v-8h-40v32h64v-8a8.009 8.009 0 0 0 -8-8zm8-152h64v-32h-64zm80 0h32c.16-6.441-4.446-7.658-8.1-8a7.8 7.8 0 0 1 -7.9-8v-16h-16zm144-176h-88a8 8 0 0 1 -5.657-2.343l-16-16a8 8 0 0 1 -2.343-5.657v-80h-4.687l-27.313 27.313v81.374l29.657 29.656a8 8 0 0 1 2.343 5.657c.006 11.682-.008 104.282 0 113.333 8.046 2.666 16 9.559 16 22.667v8a8 8 0 0 1 -8 8h-8v112a39.7 39.7 0 0 0 11.714 28.28c24.886 25.129 68.386 7.058 68.286-28.28v-264a8 8 0 0 1 2.343-5.657l29.657-29.656zm-72 280c31.83 1.313 31.839 46.682 0 48a24 24 0 0 1 0-48zm0 16c-10.6.4-10.6 15.6 0 16a8 8 0 0 0 0-16z"/></g></svg>