<svg height="512pt" viewBox="0 0 512 512" width="512pt" xmlns="http://www.w3.org/2000/svg"><path d="m394.667969 0h-277.335938c-64.679687 0-117.332031 52.628906-117.332031 117.332031 0 64.707031 52.652344 117.335938 117.332031 117.335938h277.335938c64.679687 0 117.332031-52.628907 117.332031-117.335938 0-64.703125-52.652344-117.332031-117.332031-117.332031zm0 0" fill="#00bcd4"/><path d="m170.667969 117.332031c0 29.457031-23.878907 53.335938-53.335938 53.335938-29.453125 0-53.332031-23.878907-53.332031-53.335938 0-29.453125 23.878906-53.332031 53.332031-53.332031 29.457031 0 53.335938 23.878906 53.335938 53.332031zm0 0" fill="#fafafa"/><path d="m394.667969 277.332031h-277.335938c-64.679687 0-117.332031 52.628907-117.332031 117.335938 0 64.703125 52.652344 117.332031 117.332031 117.332031h277.335938c64.679687 0 117.332031-52.628906 117.332031-117.332031 0-64.707031-52.652344-117.335938-117.332031-117.335938zm0 0" fill="#607d8b"/><path d="m448 394.667969c0 29.453125-23.878906 53.332031-53.332031 53.332031-29.457031 0-53.335938-23.878906-53.335938-53.332031 0-29.457031 23.878907-53.335938 53.335938-53.335938 29.453125 0 53.332031 23.878907 53.332031 53.335938zm0 0" fill="#fafafa"/></svg>