<svg id="Layer_1" height="512" viewBox="0 0 512 512" width="512" xmlns="http://www.w3.org/2000/svg" data-name="Layer 1"><path d="m303.88 296h-95.76c-42.39 0-77.12 34.68-77.12 77.06v28.94h250v-28.94c0-42.38-34.73-77.06-77.12-77.06z" fill="#a5e2fb"/><path d="m238.12 296h-30c-42.39 0-77.12 34.68-77.12 77.06v28.94h30v-28.94c0-42.38 34.73-77.06 77.12-77.06z" fill="#83b8c9"/><path d="m222 279v21.18c0 17.21 14.17 30.82 31.38 30.82h5.24c17.21 0 31.38-13.61 31.38-30.82v-21.18z" fill="#efc597"/><path d="m289.77 278.56a70.82 70.82 0 0 1 -67.54 0 71.939 71.939 0 0 1 -11.41-7.73 70.556 70.556 0 0 1 -24.36-41.38l-3.94-13.53v-.11a19.093 19.093 0 0 1 -15.77-18.8 18.9 18.9 0 0 1 .55-4.55 14.36 14.36 0 0 1 12.78-10.94v.44a10.153 10.153 0 0 0 15.34-8.3l.72-10.31a7.839 7.839 0 0 1 7.98-7.29c13.85.26 45-1.01 76.39-15.02 23.15 38.97 51.44 40.65 51.44 40.65v-.17a14.36 14.36 0 0 1 12.75 10.94 19.1 19.1 0 0 1 -15.22 23.35v.11l-3.94 13.53a70.71 70.71 0 0 1 -35.77 49.11z" fill="#ffd8b7"/><path d="m252.29 278.584a71.287 71.287 0 0 1 -11.35-7.707 70.209 70.209 0 0 1 -23.818-39.253c-.3-1.382-.615-2.76-.96-4.131a104.7 104.7 0 0 1 -3.162-25.534v-45.969c-3.434.112-6.432.116-8.88.07a7.839 7.839 0 0 0 -7.98 7.29l-.72 10.31a10.224 10.224 0 0 1 -10.22 9.73 11.209 11.209 0 0 1 -5.2-1.43v-.44a14.1 14.1 0 0 0 -12.74 10.94 18.949 18.949 0 0 0 -.29 4.55 19.285 19.285 0 0 0 16.03 18.8v.11l3.7 13.53a70.394 70.394 0 0 0 24.24 41.38 71.419 71.419 0 0 0 11.35 7.73 70.678 70.678 0 0 0 48.71 6.966 70.7 70.7 0 0 1 -18.71-6.942z" fill="#d3ab8d"/><path d="m324.605 110.23-44.058 30.81c23.153 38.97 51.453 40.65 51.453 40.65v-38.79a75.53 75.53 0 0 0 -7.395-32.67z" fill="#6d7486"/><path d="m180.08 181.52v-38.62a75.947 75.947 0 0 1 144.5-32.67 137.51 137.51 0 0 1 -44.07 30.81c-31.39 14.01-62.54 15.28-76.39 15.02a7.839 7.839 0 0 0 -7.98 7.29l-.72 10.31a10.153 10.153 0 0 1 -15.34 8.3z" fill="#7d8595"/><g fill="#6994fe"><path d="m16 127.935a6 6 0 0 1 -6-6v-84.345a6 6 0 0 1 6-6h84.344a6 6 0 0 1 0 12h-78.344v78.345a6 6 0 0 1 -6 6z"/><path d="m496 127.935a6 6 0 0 1 -6-6v-78.345h-78.344a6 6 0 1 1 0-12h84.344a6 6 0 0 1 6 6v84.345a6 6 0 0 1 -6 6z"/><path d="m100.344 480.406h-84.344a6 6 0 0 1 -6-6v-84.344a6 6 0 0 1 12 0v78.344h78.344a6 6 0 0 1 0 12z"/><path d="m496 480.406h-84.344a6 6 0 0 1 0-12h78.344v-78.344a6 6 0 0 1 12 0v84.344a6 6 0 0 1 -6 6z"/></g><g id="_Group_6-2" data-name=" Group 6-2"><g id="_Path_2-2" data-name=" Path 2-2"><path d="m433.005 396.178a6 6 0 0 1 -4.778-9.624 216.216 216.216 0 0 0 0-261.112 6 6 0 1 1 9.565-7.246 228.215 228.215 0 0 1 0 275.6 5.99 5.99 0 0 1 -4.787 2.382z" fill="#f3ce7d"/></g><g id="_Group_7-2" data-name=" Group 7-2"><g id="_Path_3-2" data-name=" Path 3-2"><path d="m79 396.174a5.994 5.994 0 0 1 -4.788-2.377 228.214 228.214 0 0 1 0-275.6 6 6 0 0 1 9.566 7.246 216.211 216.211 0 0 0 0 261.106 6 6 0 0 1 -4.778 9.625z" fill="#f3ce7d"/></g><g id="_Path_4-2" data-name=" Path 4-2"><path d="m390.171 84.994a5.974 5.974 0 0 1 -3.619-1.218 216.21 216.21 0 0 0 -261.108 0 6 6 0 1 1 -7.246-9.565 228.209 228.209 0 0 1 275.6 0 6 6 0 0 1 -3.627 10.783z" fill="#f3ce7d"/></g><g id="_Path_5-2" data-name=" Path 5-2"><path d="m256 484.09a226.437 226.437 0 0 1 -137.8-46.3 6 6 0 1 1 7.246-9.565 216.214 216.214 0 0 0 261.108 0 6 6 0 1 1 7.246 9.565 226.437 226.437 0 0 1 -137.8 46.3z" fill="#f3ce7d"/></g></g></g><path d="m158.176 379.059a6 6 0 0 1 -6-6 56.109 56.109 0 0 1 18.03-41.1 6 6 0 1 1 8.138 8.818 44.077 44.077 0 0 0 -14.168 32.286 6 6 0 0 1 -6 5.996z" fill="#f4f8fc"/><path d="m192.249 331.7a6 6 0 0 1 -1.91-11.69c1.732-.581 3.515-1.083 5.3-1.492a6 6 0 0 1 2.678 11.7c-1.4.321-2.8.714-4.156 1.17a5.991 5.991 0 0 1 -1.912.312z" fill="#f4f8fc"/></svg>